<?xml version="1.0" encoding="utf-8"?>
<!-- Generator: Adobe Illustrator 22.0.1, SVG Export Plug-In . SVG Version: 6.00 Build 0)  -->
<svg version="1.1" id="Layer_1" xmlns="http://www.w3.org/2000/svg" xmlns:xlink="http://www.w3.org/1999/xlink" x="0px" y="0px"
	 viewBox="0 0 201.9 56.7" style="enable-background:new 0 0 201.9 56.7;" xml:space="preserve">
<style type="text/css">
	.st0{fill:#A3928F;}
	.st1{fill:#14143C;}
</style>
<g>
	<g>
		<path class="st0" d="M44.7,53.6l3.1-3.9c1.2,1.1,3.5,2.5,5.7,2.5c2.2,0,3.1-0.7,3.1-1.6c0-3.2-11.5-0.1-11.5-7.4
			c0-3.7,3.4-6.4,8.3-6.4c3.5,0,5.9,1.4,7.3,2.6l-3,3.5c-0.8-0.8-2.9-1.7-4.6-1.7c-2,0-2.8,0.6-2.8,1.4c0,2.7,11.6,0,11.6,7.4
			c0,3.7-3.3,6.8-8.6,6.8C49.8,56.7,46.7,55.6,44.7,53.6z"/>
		<polygon class="st0" points="89.1,37.1 85.2,44.7 81.3,37.1 61.5,37.1 61.5,41.6 67.2,41.6 67.2,56.3 72.5,56.3 72.5,41.6 
			78.2,41.6 82.5,49.6 82.5,56.3 87.8,56.3 87.8,49.6 94.5,37.1 		"/>
		<path class="st0" d="M95.6,37.1h9.3c4.8,0,7.4,2.7,7.4,6.6c0,2.5-1.5,4.5-3.5,5.6l4,7.1h-5.8l-3.3-6.2h-2.8v6.2h-5.3V37.1z
			 M100.8,41.6v4.2h3.9c1.5,0,2.2-1,2.2-2.1c0-1.1-0.7-2.1-2.2-2.1H100.8z"/>
		<path class="st0" d="M115.2,37.1h14.4v4.7h-9.2v2.6h7.4v4.4h-7.4v3.1h9.5v4.4h-14.8V37.1z"/>
		<path class="st0" d="M146.9,56.3H133V37.1h5.3v14.8h8.6V56.3z"/>
		<path class="st0" d="M148.2,53.6l3.1-3.9c1.2,1.1,3.5,2.5,5.7,2.5c2.2,0,3.1-0.7,3.1-1.6c0-3.2-11.5-0.1-11.5-7.4
			c0-3.7,3.4-6.4,8.3-6.4c3.5,0,5.9,1.4,7.3,2.6l-3,3.5c-0.8-0.8-2.9-1.7-4.6-1.7c-2,0-2.8,0.6-2.8,1.4c0,2.7,11.6,0,11.6,7.4
			c0,3.7-3.3,6.8-8.6,6.8C153.3,56.7,150.3,55.6,148.2,53.6z"/>
		<path class="st0" d="M167.9,37.1h14.4v4.7h-9.2v2.6h7.4v4.4h-7.4v3.1h9.5v4.4h-14.8V37.1z"/>
		<path class="st0" d="M185.5,37.1h4.9l6.5,10.4V37.1h5v19.2H197L190.4,46v10.3h-5V37.1z"/>
	</g>
	<path class="st1" d="M44.8,12.9h16.7v4.4h-5.7v14.8h-5.3V17.4h-5.8V12.9z"/>
	<path class="st1" d="M62.3,22.6c0-6.6,5.2-10,10.5-10c5.3,0,10.5,3.4,10.5,10c0,6.3-4.9,9.9-10.5,9.9
		C67.2,32.5,62.3,28.9,62.3,22.6z M78,22.6c0-3.6-2.4-5.3-5.2-5.3s-5.2,1.8-5.2,5.3c0,3.3,2.7,5.5,5.2,5.5C75.3,28,78,25.9,78,22.6z
		"/>
	<path class="st1" d="M99.9,32.1H86V12.9h5.3v14.8h8.6V32.1z"/>
	<path class="st1" d="M110.1,12.9c4.3,0,10,2,10,9.6c0,7.5-5.7,9.6-10,9.6H102V12.9H110.1z M107.3,17.4v10.3h3.1
		c1.3,0,4.4-1.1,4.4-5.1c0-4.1-3.1-5.2-4.4-5.2H107.3z"/>
	<g>
		<path class="st1" d="M4.8,25.7h1.8h0c0-0.9,0.4-2.5-0.1-3.4c-0.6-1-1.9-2-3.1-3.2c-0.5-0.5-1.6-1.3-1.6-2.6c0-1.8,1.3-2.3,2.3-2.3
			c0.3,0,0.6,0,1,0.1c0.1-0.6,0.4-1.2,0.8-1.7c-0.5-0.2-1.1-0.3-1.7-0.3c-1.7,0-4.2,1.2-4.2,4.2c0,2,1.2,3.1,2.4,4.2
			C3.6,22,4.7,23.2,4.8,25.7"/>
		<rect x="4.8" y="27.1" class="st1" width="24.9" height="1.8"/>
		<rect x="4.8" y="30.4" class="st1" width="24.9" height="1.8"/>
		<path class="st1" d="M10.1,25.7h2c0.2-1.5,0.8-2.8,0.4-3.9c-0.4-1.2-2-2.6-3-3.6c-0.8-0.9-1.3-1.6-1.3-2.7c0-1.2,1-2.3,2.4-2.3
			c1.6,0,2.6,1.5,4.6,1.5v-1.8c-1.2-0.1-2.3-1.5-4.6-1.5c-1.2,0-2.3,0.4-3.1,1.2c-0.7,0.8-1.2,1.8-1.2,2.9c0,1.7,0.8,2.8,1.6,3.8
			C9,20.7,10.1,22.2,10.1,25.7"/>
		<path class="st1" d="M30.4,14.2c0.9,0,2.3,0.5,2.3,2.3c0,1.4-1.1,2.1-1.6,2.6c-1.2,1.1-2.5,2.1-3.1,3.2c-0.5,0.9-0.2,2.5-0.1,3.4
			h1.8c0.2-2.5,1.2-3.7,2.5-5c1.1-1.1,2.4-2.3,2.4-4.2c0-3-2.4-4.2-4.2-4.2c-0.6,0-1.1,0.1-1.7,0.3c0.4,0.5,0.6,1.1,0.8,1.7
			C29.8,14.2,30.1,14.2,30.4,14.2"/>
		<path class="st1" d="M19.5,14.7c2,0,2.9-1.5,4.6-1.5c1.4,0,2.4,1.1,2.4,2.3c0,1.1-0.5,1.8-1.3,2.7c-1,1.1-2.6,2.4-3,3.6
			c-0.4,1.1,0.2,2.4,0.4,3.9h2c-0.1-3.5,1.1-5.1,2.1-6.4c0.8-1,1.6-2.1,1.6-3.8c0-1.1-0.4-2.2-1.2-2.9c-0.8-0.8-1.9-1.2-3.1-1.2
			c-2.3,0-3.4,1.4-4.6,1.5V14.7z"/>
		<path class="st1" d="M16.3,11.5v5.3c0,0,0,0,0,0c0,3.4-0.9,4.2-0.9,5.4c0,1.4,0.6,1.9,0.9,3.5c0,0,0,0,0,0v0h1.9v0c0,0,0,0,0,0
			c0.3-1.6,0.9-2,0.9-3.5c0-1.1-0.9-2-0.9-5.4c0,0,0,0,0,0v-5.3H16.3z"/>
		<path class="st1" d="M17.3,6.9c0.5,0,1,0.4,1,1c0,0.5-0.4,1-1,1c-0.5,0-1-0.4-1-1C16.3,7.4,16.7,6.9,17.3,6.9 M16.4,5.5
			c-1,0.3-1.7,1.3-1.7,2.4c0,1.4,1.2,2.6,2.6,2.6c1.4,0,2.6-1.2,2.6-2.6c0-1.1-0.7-2.1-1.7-2.4V3.6H20V1.9h-1.9V0h-1.7v1.9h-1.9v1.7
			h1.9V5.5z"/>
	</g>
</g>
</svg>
